<?xml version="1.0" encoding="UTF-8" standalone="no"?><svg xmlns="http://www.w3.org/2000/svg" xmlns:xlink="http://www.w3.org/1999/xlink" contentScriptType="application/ecmascript" contentStyleType="text/css" height="1025px" preserveAspectRatio="none" style="width:708px;height:1025px;background:#FFFFFF;" version="1.1" viewBox="0 0 708 1025" width="708px" zoomAndPan="magnify"><defs><filter height="300%" id="fyna0dzthw7c4" width="300%" x="-1" y="-1"><feGaussianBlur result="blurOut" stdDeviation="2.0"/><feColorMatrix in="blurOut" result="blurOut2" type="matrix" values="0 0 0 0 0 0 0 0 0 0 0 0 0 0 0 0 0 0 .4 0"/><feOffset dx="4.0" dy="4.0" in="blurOut2" result="blurOut3"/><feBlend in="SourceGraphic" in2="blurOut3" mode="normal"/></filter></defs><g><!--MD5=[ce135f397e71694d574a1221b16fe9d6]
class Klondike--><rect codeLine="3" fill="#FEFECE" filter="url(#fyna0dzthw7c4)" height="48" id="Klondike" style="stroke:#A80036;stroke-width:1.5;" width="82" x="433" y="7"/><ellipse cx="448" cy="23" fill="#ADD1B2" rx="11" ry="11" style="stroke:#A80036;stroke-width:1.0;"/><path d="M450.4731,29.1431 Q449.8921,29.4419 449.2529,29.5913 Q448.6138,29.7407 447.9082,29.7407 Q445.4014,29.7407 444.0815,28.0889 Q442.7617,26.437 442.7617,23.3159 Q442.7617,20.1865 444.0815,18.5347 Q445.4014,16.8828 447.9082,16.8828 Q448.6138,16.8828 449.2612,17.0322 Q449.9087,17.1816 450.4731,17.4805 L450.4731,20.2031 Q449.8423,19.6221 449.2488,19.3523 Q448.6553,19.0825 448.0244,19.0825 Q446.6797,19.0825 445.9949,20.1492 Q445.3101,21.2158 445.3101,23.3159 Q445.3101,25.4077 445.9949,26.4744 Q446.6797,27.541 448.0244,27.541 Q448.6553,27.541 449.2488,27.2712 Q449.8423,27.0015 450.4731,26.4204 Z " fill="#000000"/><text fill="#000000" font-family="sans-serif" font-size="12" lengthAdjust="spacing" textLength="50" x="462" y="27.5352">Klondike</text><line style="stroke:#A80036;stroke-width:1.5;" x1="434" x2="514" y1="39" y2="39"/><line style="stroke:#A80036;stroke-width:1.5;" x1="434" x2="514" y1="47" y2="47"/><!--MD5=[2cb47ba637a0d19583e6199456f6ad0b]
class Player--><rect codeLine="4" fill="#FEFECE" filter="url(#fyna0dzthw7c4)" height="48" id="Player" style="stroke:#A80036;stroke-width:1.5;" width="67" x="213.5" y="132"/><ellipse cx="228.5" cy="148" fill="#ADD1B2" rx="11" ry="11" style="stroke:#A80036;stroke-width:1.0;"/><path d="M230.9731,154.1431 Q230.3921,154.4419 229.7529,154.5913 Q229.1138,154.7407 228.4082,154.7407 Q225.9014,154.7407 224.5815,153.0889 Q223.2617,151.437 223.2617,148.3159 Q223.2617,145.1865 224.5815,143.5347 Q225.9014,141.8828 228.4082,141.8828 Q229.1138,141.8828 229.7612,142.0322 Q230.4087,142.1816 230.9731,142.4805 L230.9731,145.2031 Q230.3423,144.6221 229.7488,144.3523 Q229.1553,144.0825 228.5244,144.0825 Q227.1797,144.0825 226.4949,145.1492 Q225.8101,146.2158 225.8101,148.3159 Q225.8101,150.4077 226.4949,151.4744 Q227.1797,152.541 228.5244,152.541 Q229.1553,152.541 229.7488,152.2712 Q230.3423,152.0015 230.9731,151.4204 Z " fill="#000000"/><text fill="#000000" font-family="sans-serif" font-size="12" lengthAdjust="spacing" textLength="35" x="242.5" y="152.5352">Player</text><line style="stroke:#A80036;stroke-width:1.5;" x1="214.5" x2="279.5" y1="164" y2="164"/><line style="stroke:#A80036;stroke-width:1.5;" x1="214.5" x2="279.5" y1="172" y2="172"/><!--MD5=[9d65f55e1ae89a5b4cf38812aa4a03f3]
class Pile--><rect codeLine="15" fill="#FEFECE" filter="url(#fyna0dzthw7c4)" height="48" id="Pile" style="stroke:#A80036;stroke-width:1.5;" width="52" x="429" y="666.5"/><ellipse cx="444" cy="682.5" fill="#ADD1B2" rx="11" ry="11" style="stroke:#A80036;stroke-width:1.0;"/><path d="M446.4731,688.6431 Q445.8921,688.9419 445.2529,689.0913 Q444.6138,689.2407 443.9082,689.2407 Q441.4014,689.2407 440.0815,687.5889 Q438.7617,685.937 438.7617,682.8159 Q438.7617,679.6865 440.0815,678.0347 Q441.4014,676.3828 443.9082,676.3828 Q444.6138,676.3828 445.2612,676.5322 Q445.9087,676.6816 446.4731,676.9805 L446.4731,679.7031 Q445.8423,679.1221 445.2488,678.8523 Q444.6553,678.5825 444.0244,678.5825 Q442.6797,678.5825 441.9949,679.6492 Q441.3101,680.7158 441.3101,682.8159 Q441.3101,684.9077 441.9949,685.9744 Q442.6797,687.041 444.0244,687.041 Q444.6553,687.041 445.2488,686.7712 Q445.8423,686.5015 446.4731,685.9204 Z " fill="#000000"/><text fill="#000000" font-family="sans-serif" font-size="12" lengthAdjust="spacing" textLength="20" x="458" y="687.0352">Pile</text><line style="stroke:#A80036;stroke-width:1.5;" x1="430" x2="480" y1="698.5" y2="698.5"/><line style="stroke:#A80036;stroke-width:1.5;" x1="430" x2="480" y1="706.5" y2="706.5"/><!--MD5=[d01ad859d436f6e28b36a553834670aa]
class Foundation--><rect codeLine="6" fill="#FEFECE" filter="url(#fyna0dzthw7c4)" height="48" id="Foundation" style="stroke:#A80036;stroke-width:1.5;" width="95" x="51.5" y="666.5"/><ellipse cx="66.5" cy="682.5" fill="#ADD1B2" rx="11" ry="11" style="stroke:#A80036;stroke-width:1.0;"/><path d="M68.9731,688.6431 Q68.3921,688.9419 67.7529,689.0913 Q67.1138,689.2407 66.4082,689.2407 Q63.9014,689.2407 62.5815,687.5889 Q61.2617,685.937 61.2617,682.8159 Q61.2617,679.6865 62.5815,678.0347 Q63.9014,676.3828 66.4082,676.3828 Q67.1138,676.3828 67.7612,676.5322 Q68.4087,676.6816 68.9731,676.9805 L68.9731,679.7031 Q68.3423,679.1221 67.7488,678.8523 Q67.1553,678.5825 66.5244,678.5825 Q65.1797,678.5825 64.4949,679.6492 Q63.8101,680.7158 63.8101,682.8159 Q63.8101,684.9077 64.4949,685.9744 Q65.1797,687.041 66.5244,687.041 Q67.1553,687.041 67.7488,686.7712 Q68.3423,686.5015 68.9731,685.9204 Z " fill="#000000"/><text fill="#000000" font-family="sans-serif" font-size="12" lengthAdjust="spacing" textLength="63" x="80.5" y="687.0352">Foundation</text><line style="stroke:#A80036;stroke-width:1.5;" x1="52.5" x2="145.5" y1="698.5" y2="698.5"/><line style="stroke:#A80036;stroke-width:1.5;" x1="52.5" x2="145.5" y1="706.5" y2="706.5"/><!--MD5=[c3c256aac7e3870d53c0042288b21bdc]
class Waste--><rect codeLine="7" fill="#FEFECE" filter="url(#fyna0dzthw7c4)" height="48" id="Waste" style="stroke:#A80036;stroke-width:1.5;" width="66" x="628" y="666.5"/><ellipse cx="643" cy="682.5" fill="#ADD1B2" rx="11" ry="11" style="stroke:#A80036;stroke-width:1.0;"/><path d="M645.4731,688.6431 Q644.8921,688.9419 644.2529,689.0913 Q643.6138,689.2407 642.9082,689.2407 Q640.4014,689.2407 639.0815,687.5889 Q637.7617,685.937 637.7617,682.8159 Q637.7617,679.6865 639.0815,678.0347 Q640.4014,676.3828 642.9082,676.3828 Q643.6138,676.3828 644.2612,676.5322 Q644.9087,676.6816 645.4731,676.9805 L645.4731,679.7031 Q644.8423,679.1221 644.2488,678.8523 Q643.6553,678.5825 643.0244,678.5825 Q641.6797,678.5825 640.9949,679.6492 Q640.3101,680.7158 640.3101,682.8159 Q640.3101,684.9077 640.9949,685.9744 Q641.6797,687.041 643.0244,687.041 Q643.6553,687.041 644.2488,686.7712 Q644.8423,686.5015 645.4731,685.9204 Z " fill="#000000"/><text fill="#000000" font-family="sans-serif" font-size="12" lengthAdjust="spacing" textLength="34" x="657" y="687.0352">Waste</text><line style="stroke:#A80036;stroke-width:1.5;" x1="629" x2="693" y1="698.5" y2="698.5"/><line style="stroke:#A80036;stroke-width:1.5;" x1="629" x2="693" y1="706.5" y2="706.5"/><!--MD5=[a4cb0f987c11031dc931233a0e7767af]
class Stock--><rect codeLine="8" fill="#FEFECE" filter="url(#fyna0dzthw7c4)" height="48" id="Stock" style="stroke:#A80036;stroke-width:1.5;" width="62" x="526" y="666.5"/><ellipse cx="541" cy="682.5" fill="#ADD1B2" rx="11" ry="11" style="stroke:#A80036;stroke-width:1.0;"/><path d="M543.4731,688.6431 Q542.8921,688.9419 542.2529,689.0913 Q541.6138,689.2407 540.9082,689.2407 Q538.4014,689.2407 537.0815,687.5889 Q535.7617,685.937 535.7617,682.8159 Q535.7617,679.6865 537.0815,678.0347 Q538.4014,676.3828 540.9082,676.3828 Q541.6138,676.3828 542.2612,676.5322 Q542.9087,676.6816 543.4731,676.9805 L543.4731,679.7031 Q542.8423,679.1221 542.2488,678.8523 Q541.6553,678.5825 541.0244,678.5825 Q539.6797,678.5825 538.9949,679.6492 Q538.3101,680.7158 538.3101,682.8159 Q538.3101,684.9077 538.9949,685.9744 Q539.6797,687.041 541.0244,687.041 Q541.6553,687.041 542.2488,686.7712 Q542.8423,686.5015 543.4731,685.9204 Z " fill="#000000"/><text fill="#000000" font-family="sans-serif" font-size="12" lengthAdjust="spacing" textLength="30" x="555" y="687.0352">Stock</text><line style="stroke:#A80036;stroke-width:1.5;" x1="527" x2="587" y1="698.5" y2="698.5"/><line style="stroke:#A80036;stroke-width:1.5;" x1="527" x2="587" y1="706.5" y2="706.5"/><!--MD5=[1981719fa3982d92ef7fd3f06d73b3e7]
class Move--><rect codeLine="9" fill="#FEFECE" filter="url(#fyna0dzthw7c4)" height="86.8652" id="Move" style="stroke:#A80036;stroke-width:1.5;" width="86" x="204" y="301"/><ellipse cx="229.8" cy="317" fill="#ADD1B2" rx="11" ry="11" style="stroke:#A80036;stroke-width:1.0;"/><path d="M232.2731,323.1431 Q231.6921,323.4419 231.0529,323.5913 Q230.4138,323.7407 229.7082,323.7407 Q227.2014,323.7407 225.8815,322.0889 Q224.5617,320.437 224.5617,317.3159 Q224.5617,314.1865 225.8815,312.5347 Q227.2014,310.8828 229.7082,310.8828 Q230.4138,310.8828 231.0612,311.0322 Q231.7087,311.1816 232.2731,311.4805 L232.2731,314.2031 Q231.6423,313.6221 231.0488,313.3523 Q230.4553,313.0825 229.8244,313.0825 Q228.4797,313.0825 227.7949,314.1492 Q227.1101,315.2158 227.1101,317.3159 Q227.1101,319.4077 227.7949,320.4744 Q228.4797,321.541 229.8244,321.541 Q230.4553,321.541 231.0488,321.2712 Q231.6423,321.0015 232.2731,320.4204 Z " fill="#000000"/><text fill="#000000" font-family="sans-serif" font-size="12" lengthAdjust="spacing" textLength="30" x="246.2" y="321.5352">Move</text><line style="stroke:#A80036;stroke-width:1.5;" x1="205" x2="289" y1="333" y2="333"/><rect fill="none" height="6" style="stroke:#C82930;stroke-width:1.0;" width="6" x="212" y="341"/><text fill="#000000" font-family="sans-serif" font-size="11" lengthAdjust="spacing" textLength="60" x="224" y="347.6348">from: Stack</text><rect fill="none" height="6" style="stroke:#C82930;stroke-width:1.0;" width="6" x="212" y="353.9551"/><text fill="#000000" font-family="sans-serif" font-size="11" lengthAdjust="spacing" textLength="56" x="224" y="360.5898">card: Card</text><rect fill="none" height="6" style="stroke:#C82930;stroke-width:1.0;" width="6" x="212" y="366.9102"/><text fill="#000000" font-family="sans-serif" font-size="11" lengthAdjust="spacing" textLength="45" x="224" y="373.5449">to: Stack</text><line style="stroke:#A80036;stroke-width:1.5;" x1="205" x2="289" y1="379.8652" y2="379.8652"/><!--MD5=[0992d3fdc9d3d7c02b735131bb70871d]
class Goal--><rect codeLine="14" fill="#FEFECE" filter="url(#fyna0dzthw7c4)" height="48" id="Goal" style="stroke:#A80036;stroke-width:1.5;" width="58" x="89" y="320.5"/><ellipse cx="104" cy="336.5" fill="#ADD1B2" rx="11" ry="11" style="stroke:#A80036;stroke-width:1.0;"/><path d="M106.4731,342.6431 Q105.8921,342.9419 105.2529,343.0913 Q104.6138,343.2407 103.9082,343.2407 Q101.4014,343.2407 100.0815,341.5889 Q98.7617,339.937 98.7617,336.8159 Q98.7617,333.6865 100.0815,332.0347 Q101.4014,330.3828 103.9082,330.3828 Q104.6138,330.3828 105.2612,330.5322 Q105.9087,330.6816 106.4731,330.9805 L106.4731,333.7031 Q105.8423,333.1221 105.2488,332.8523 Q104.6553,332.5825 104.0244,332.5825 Q102.6797,332.5825 101.9949,333.6492 Q101.3101,334.7158 101.3101,336.8159 Q101.3101,338.9077 101.9949,339.9744 Q102.6797,341.041 104.0244,341.041 Q104.6553,341.041 105.2488,340.7712 Q105.8423,340.5015 106.4731,339.9204 Z " fill="#000000"/><text fill="#000000" font-family="sans-serif" font-size="12" lengthAdjust="spacing" textLength="26" x="118" y="341.0352">Goal</text><line style="stroke:#A80036;stroke-width:1.5;" x1="90" x2="146" y1="352.5" y2="352.5"/><line style="stroke:#A80036;stroke-width:1.5;" x1="90" x2="146" y1="360.5" y2="360.5"/><!--MD5=[30299a58ba6b78debaaed5ddbb42f29a]
class Deck--><rect codeLine="16" fill="#FEFECE" filter="url(#fyna0dzthw7c4)" height="60.9551" id="Deck" style="stroke:#A80036;stroke-width:1.5;" width="94" x="379" y="210"/><ellipse cx="408.85" cy="226" fill="#ADD1B2" rx="11" ry="11" style="stroke:#A80036;stroke-width:1.0;"/><path d="M411.3231,232.1431 Q410.7421,232.4419 410.1029,232.5913 Q409.4638,232.7407 408.7582,232.7407 Q406.2514,232.7407 404.9315,231.0889 Q403.6117,229.437 403.6117,226.3159 Q403.6117,223.1865 404.9315,221.5347 Q406.2514,219.8828 408.7582,219.8828 Q409.4638,219.8828 410.1112,220.0322 Q410.7587,220.1816 411.3231,220.4805 L411.3231,223.2031 Q410.6923,222.6221 410.0988,222.3523 Q409.5053,222.0825 408.8744,222.0825 Q407.5297,222.0825 406.8449,223.1492 Q406.1601,224.2158 406.1601,226.3159 Q406.1601,228.4077 406.8449,229.4744 Q407.5297,230.541 408.8744,230.541 Q409.5053,230.541 410.0988,230.2712 Q410.6923,230.0015 411.3231,229.4204 Z " fill="#000000"/><text fill="#000000" font-family="sans-serif" font-size="12" lengthAdjust="spacing" textLength="29" x="426.15" y="230.5352">Deck</text><line style="stroke:#A80036;stroke-width:1.5;" x1="380" x2="472" y1="242" y2="242"/><rect fill="none" height="6" style="stroke:#C82930;stroke-width:1.0;" width="6" x="387" y="250"/><text fill="#000000" font-family="sans-serif" font-size="11" lengthAdjust="spacing" textLength="68" x="399" y="256.6348">cardList: List</text><line style="stroke:#A80036;stroke-width:1.5;" x1="380" x2="472" y1="262.9551" y2="262.9551"/><!--MD5=[a7ca736ec2eaa3f5c977a8fac7fd0779]
class Club--><rect codeLine="19" fill="#FEFECE" filter="url(#fyna0dzthw7c4)" height="48" id="Club" style="stroke:#A80036;stroke-width:1.5;" width="58" x="7" y="879"/><ellipse cx="22" cy="895" fill="#ADD1B2" rx="11" ry="11" style="stroke:#A80036;stroke-width:1.0;"/><path d="M24.4731,901.1431 Q23.8921,901.4419 23.2529,901.5913 Q22.6138,901.7407 21.9082,901.7407 Q19.4014,901.7407 18.0815,900.0889 Q16.7617,898.437 16.7617,895.3159 Q16.7617,892.1865 18.0815,890.5347 Q19.4014,888.8828 21.9082,888.8828 Q22.6138,888.8828 23.2612,889.0322 Q23.9087,889.1816 24.4731,889.4805 L24.4731,892.2031 Q23.8423,891.6221 23.2488,891.3523 Q22.6553,891.0825 22.0244,891.0825 Q20.6797,891.0825 19.9949,892.1492 Q19.3101,893.2158 19.3101,895.3159 Q19.3101,897.4077 19.9949,898.4744 Q20.6797,899.541 22.0244,899.541 Q22.6553,899.541 23.2488,899.2712 Q23.8423,899.0015 24.4731,898.4204 Z " fill="#000000"/><text fill="#000000" font-family="sans-serif" font-size="12" lengthAdjust="spacing" textLength="26" x="36" y="899.5352">Club</text><line style="stroke:#A80036;stroke-width:1.5;" x1="8" x2="64" y1="911" y2="911"/><line style="stroke:#A80036;stroke-width:1.5;" x1="8" x2="64" y1="919" y2="919"/><!--MD5=[c0ff7312a1fc0055a007a9765d4a1220]
class Diamond--><rect codeLine="20" fill="#FEFECE" filter="url(#fyna0dzthw7c4)" height="48" id="Diamond" style="stroke:#A80036;stroke-width:1.5;" width="84" x="100" y="879"/><ellipse cx="115" cy="895" fill="#ADD1B2" rx="11" ry="11" style="stroke:#A80036;stroke-width:1.0;"/><path d="M117.4731,901.1431 Q116.8921,901.4419 116.2529,901.5913 Q115.6138,901.7407 114.9082,901.7407 Q112.4014,901.7407 111.0815,900.0889 Q109.7617,898.437 109.7617,895.3159 Q109.7617,892.1865 111.0815,890.5347 Q112.4014,888.8828 114.9082,888.8828 Q115.6138,888.8828 116.2612,889.0322 Q116.9087,889.1816 117.4731,889.4805 L117.4731,892.2031 Q116.8423,891.6221 116.2488,891.3523 Q115.6553,891.0825 115.0244,891.0825 Q113.6797,891.0825 112.9949,892.1492 Q112.3101,893.2158 112.3101,895.3159 Q112.3101,897.4077 112.9949,898.4744 Q113.6797,899.541 115.0244,899.541 Q115.6553,899.541 116.2488,899.2712 Q116.8423,899.0015 117.4731,898.4204 Z " fill="#000000"/><text fill="#000000" font-family="sans-serif" font-size="12" lengthAdjust="spacing" textLength="52" x="129" y="899.5352">Diamond</text><line style="stroke:#A80036;stroke-width:1.5;" x1="101" x2="183" y1="911" y2="911"/><line style="stroke:#A80036;stroke-width:1.5;" x1="101" x2="183" y1="919" y2="919"/><!--MD5=[9bb5813e59df3e2529d11a5afaed7800]
class Heart--><rect codeLine="21" fill="#FEFECE" filter="url(#fyna0dzthw7c4)" height="48" id="Heart" style="stroke:#A80036;stroke-width:1.5;" width="64" x="219" y="879"/><ellipse cx="234" cy="895" fill="#ADD1B2" rx="11" ry="11" style="stroke:#A80036;stroke-width:1.0;"/><path d="M236.4731,901.1431 Q235.8921,901.4419 235.2529,901.5913 Q234.6138,901.7407 233.9082,901.7407 Q231.4014,901.7407 230.0815,900.0889 Q228.7617,898.437 228.7617,895.3159 Q228.7617,892.1865 230.0815,890.5347 Q231.4014,888.8828 233.9082,888.8828 Q234.6138,888.8828 235.2612,889.0322 Q235.9087,889.1816 236.4731,889.4805 L236.4731,892.2031 Q235.8423,891.6221 235.2488,891.3523 Q234.6553,891.0825 234.0244,891.0825 Q232.6797,891.0825 231.9949,892.1492 Q231.3101,893.2158 231.3101,895.3159 Q231.3101,897.4077 231.9949,898.4744 Q232.6797,899.541 234.0244,899.541 Q234.6553,899.541 235.2488,899.2712 Q235.8423,899.0015 236.4731,898.4204 Z " fill="#000000"/><text fill="#000000" font-family="sans-serif" font-size="12" lengthAdjust="spacing" textLength="32" x="248" y="899.5352">Heart</text><line style="stroke:#A80036;stroke-width:1.5;" x1="220" x2="282" y1="911" y2="911"/><line style="stroke:#A80036;stroke-width:1.5;" x1="220" x2="282" y1="919" y2="919"/><!--MD5=[e07683d003131b9e2f36793e1d14f746]
class Spade--><rect codeLine="22" fill="#FEFECE" filter="url(#fyna0dzthw7c4)" height="48" id="Spade" style="stroke:#A80036;stroke-width:1.5;" width="68" x="318" y="879"/><ellipse cx="333" cy="895" fill="#ADD1B2" rx="11" ry="11" style="stroke:#A80036;stroke-width:1.0;"/><path d="M335.4731,901.1431 Q334.8921,901.4419 334.2529,901.5913 Q333.6138,901.7407 332.9082,901.7407 Q330.4014,901.7407 329.0815,900.0889 Q327.7617,898.437 327.7617,895.3159 Q327.7617,892.1865 329.0815,890.5347 Q330.4014,888.8828 332.9082,888.8828 Q333.6138,888.8828 334.2612,889.0322 Q334.9087,889.1816 335.4731,889.4805 L335.4731,892.2031 Q334.8423,891.6221 334.2488,891.3523 Q333.6553,891.0825 333.0244,891.0825 Q331.6797,891.0825 330.9949,892.1492 Q330.3101,893.2158 330.3101,895.3159 Q330.3101,897.4077 330.9949,898.4744 Q331.6797,899.541 333.0244,899.541 Q333.6553,899.541 334.2488,899.2712 Q334.8423,899.0015 335.4731,898.4204 Z " fill="#000000"/><text fill="#000000" font-family="sans-serif" font-size="12" lengthAdjust="spacing" textLength="36" x="347" y="899.5352">Spade</text><line style="stroke:#A80036;stroke-width:1.5;" x1="319" x2="385" y1="911" y2="911"/><line style="stroke:#A80036;stroke-width:1.5;" x1="319" x2="385" y1="919" y2="919"/><!--MD5=[0cbf0ff5332a27d609b670529a71c68f]
class FilledFoundation--><rect codeLine="23" fill="#FEFECE" filter="url(#fyna0dzthw7c4)" height="48" id="FilledFoundation" style="stroke:#A80036;stroke-width:1.5;" width="125" x="36.5" y="569"/><ellipse cx="51.5" cy="585" fill="#ADD1B2" rx="11" ry="11" style="stroke:#A80036;stroke-width:1.0;"/><path d="M53.9731,591.1431 Q53.3921,591.4419 52.7529,591.5913 Q52.1138,591.7407 51.4082,591.7407 Q48.9014,591.7407 47.5815,590.0889 Q46.2617,588.437 46.2617,585.3159 Q46.2617,582.1865 47.5815,580.5347 Q48.9014,578.8828 51.4082,578.8828 Q52.1138,578.8828 52.7612,579.0322 Q53.4087,579.1816 53.9731,579.4805 L53.9731,582.2031 Q53.3423,581.6221 52.7488,581.3523 Q52.1553,581.0825 51.5244,581.0825 Q50.1797,581.0825 49.4949,582.1492 Q48.8101,583.2158 48.8101,585.3159 Q48.8101,587.4077 49.4949,588.4744 Q50.1797,589.541 51.5244,589.541 Q52.1553,589.541 52.7488,589.2712 Q53.3423,589.0015 53.9731,588.4204 Z " fill="#000000"/><text fill="#000000" font-family="sans-serif" font-size="12" lengthAdjust="spacing" textLength="93" x="65.5" y="589.5352">FilledFoundation</text><line style="stroke:#A80036;stroke-width:1.5;" x1="37.5" x2="160.5" y1="601" y2="601"/><line style="stroke:#A80036;stroke-width:1.5;" x1="37.5" x2="160.5" y1="609" y2="609"/><!--MD5=[1a47157467d69c83c0a10e9152875283]
class Stack--><rect codeLine="26" fill="#FEFECE" filter="url(#fyna0dzthw7c4)" height="73.9102" id="Stack" style="stroke:#A80036;stroke-width:1.5;" width="136" x="234" y="465"/><ellipse cx="282.75" cy="481" fill="#A9DCDF" rx="11" ry="11" style="stroke:#A80036;stroke-width:1.0;"/><path d="M282.6133,476.3481 L281.4595,481.4199 L283.7754,481.4199 Z M281.1191,474.1069 L284.1157,474.1069 L287.4609,486.5 L285.0122,486.5 L284.2485,483.437 L280.9697,483.437 L280.2227,486.5 L277.7739,486.5 Z " fill="#000000"/><text fill="#000000" font-family="sans-serif" font-size="12" font-style="italic" lengthAdjust="spacing" textLength="30" x="303.25" y="485.5352">Stack</text><line style="stroke:#A80036;stroke-width:1.5;" x1="235" x2="369" y1="497" y2="497"/><rect fill="none" height="6" style="stroke:#C82930;stroke-width:1.0;" width="6" x="242" y="505"/><text fill="#000000" font-family="sans-serif" font-size="11" lengthAdjust="spacing" textLength="68" x="254" y="511.6348">cardList: List</text><line style="stroke:#A80036;stroke-width:1.5;" x1="235" x2="369" y1="517.9551" y2="517.9551"/><polygon fill="#FFFF44" points="245,523.9551,249,527.9551,245,531.9551,241,527.9551" style="stroke:#B38D22;stroke-width:1.0;"/><text fill="#000000" font-family="sans-serif" font-size="11" lengthAdjust="spacing" textLength="110" x="254" y="532.5898">validMove(): boolean</text><!--MD5=[5e305716458bbdabbd2d7f572ed2bae2]
class Card--><rect codeLine="30" fill="#FEFECE" filter="url(#fyna0dzthw7c4)" height="86.8652" id="Card" style="stroke:#A80036;stroke-width:1.5;" width="141" x="231.5" y="647"/><ellipse cx="283.75" cy="663" fill="#A9DCDF" rx="11" ry="11" style="stroke:#A80036;stroke-width:1.0;"/><path d="M283.6133,658.3481 L282.4595,663.4199 L284.7754,663.4199 Z M282.1191,656.1069 L285.1157,656.1069 L288.4609,668.5 L286.0122,668.5 L285.2485,665.437 L281.9697,665.437 L281.2227,668.5 L278.7739,668.5 Z " fill="#000000"/><text fill="#000000" font-family="sans-serif" font-size="12" font-style="italic" lengthAdjust="spacing" textLength="28" x="304.25" y="667.5352">Card</text><line style="stroke:#A80036;stroke-width:1.5;" x1="232.5" x2="371.5" y1="679" y2="679"/><rect fill="none" height="6" style="stroke:#C82930;stroke-width:1.0;" width="6" x="239.5" y="687"/><text fill="#000000" font-family="sans-serif" font-size="11" lengthAdjust="spacing" textLength="64" x="251.5" y="693.6348">color: Color</text><rect fill="none" height="6" style="stroke:#C82930;stroke-width:1.0;" width="6" x="239.5" y="699.9551"/><text fill="#000000" font-family="sans-serif" font-size="11" lengthAdjust="spacing" textLength="53" x="251.5" y="706.5898">rank:Rank</text><rect fill="none" height="6" style="stroke:#C82930;stroke-width:1.0;" width="6" x="239.5" y="712.9102"/><text fill="#000000" font-family="sans-serif" font-size="11" lengthAdjust="spacing" textLength="115" x="251.5" y="719.5449">upTurnCard: boolean</text><line style="stroke:#A80036;stroke-width:1.5;" x1="232.5" x2="371.5" y1="725.8652" y2="725.8652"/><!--MD5=[0f690a215a17a0cf4b9f948ca5dd1b3e]
class Rank--><rect codeLine="37" fill="#FEFECE" filter="url(#fyna0dzthw7c4)" height="216.416" id="Rank" style="stroke:#A80036;stroke-width:1.5;" width="61" x="421.5" y="795"/><ellipse cx="436.5" cy="811" fill="#EB937F" rx="11" ry="11" style="stroke:#A80036;stroke-width:1.0;"/><path d="M440.1143,817.5 L432.3945,817.5 L432.3945,805.1069 L440.1143,805.1069 L440.1143,807.2651 L434.8433,807.2651 L434.8433,809.938 L439.6162,809.938 L439.6162,812.0962 L434.8433,812.0962 L434.8433,815.3418 L440.1143,815.3418 Z " fill="#000000"/><text fill="#000000" font-family="sans-serif" font-size="12" lengthAdjust="spacing" textLength="29" x="450.5" y="815.5352">Rank</text><line style="stroke:#A80036;stroke-width:1.5;" x1="422.5" x2="481.5" y1="827" y2="827"/><text fill="#000000" font-family="sans-serif" font-size="11" lengthAdjust="spacing" textLength="8" x="427.5" y="841.6348">A</text><text fill="#000000" font-family="sans-serif" font-size="11" lengthAdjust="spacing" textLength="7" x="427.5" y="854.5898">2</text><text fill="#000000" font-family="sans-serif" font-size="11" lengthAdjust="spacing" textLength="7" x="427.5" y="867.5449">3</text><text fill="#000000" font-family="sans-serif" font-size="11" lengthAdjust="spacing" textLength="7" x="427.5" y="880.5">4</text><text fill="#000000" font-family="sans-serif" font-size="11" lengthAdjust="spacing" textLength="7" x="427.5" y="893.4551">5</text><text fill="#000000" font-family="sans-serif" font-size="11" lengthAdjust="spacing" textLength="7" x="427.5" y="906.4102">6</text><text fill="#000000" font-family="sans-serif" font-size="11" lengthAdjust="spacing" textLength="7" x="427.5" y="919.3652">7</text><text fill="#000000" font-family="sans-serif" font-size="11" lengthAdjust="spacing" textLength="7" x="427.5" y="932.3203">8</text><text fill="#000000" font-family="sans-serif" font-size="11" lengthAdjust="spacing" textLength="7" x="427.5" y="945.2754">9</text><text fill="#000000" font-family="sans-serif" font-size="11" lengthAdjust="spacing" textLength="14" x="427.5" y="958.2305">10</text><text fill="#000000" font-family="sans-serif" font-size="11" lengthAdjust="spacing" textLength="3" x="427.5" y="971.1855">J</text><text fill="#000000" font-family="sans-serif" font-size="11" lengthAdjust="spacing" textLength="9" x="427.5" y="984.1406">Q</text><text fill="#000000" font-family="sans-serif" font-size="11" lengthAdjust="spacing" textLength="7" x="427.5" y="997.0957">K</text><line style="stroke:#A80036;stroke-width:1.5;" x1="422.5" x2="481.5" y1="1003.416" y2="1003.416"/><!--MD5=[18eee71c88ab61f27581b8cbdd3ef5ee]
class Color--><rect codeLine="52" fill="#FEFECE" filter="url(#fyna0dzthw7c4)" height="73.9102" id="Color" style="stroke:#A80036;stroke-width:1.5;" width="62" x="518" y="866"/><ellipse cx="533" cy="882" fill="#EB937F" rx="11" ry="11" style="stroke:#A80036;stroke-width:1.0;"/><path d="M536.6143,888.5 L528.8945,888.5 L528.8945,876.1069 L536.6143,876.1069 L536.6143,878.2651 L531.3433,878.2651 L531.3433,880.938 L536.1162,880.938 L536.1162,883.0962 L531.3433,883.0962 L531.3433,886.3418 L536.6143,886.3418 Z " fill="#000000"/><text fill="#000000" font-family="sans-serif" font-size="12" lengthAdjust="spacing" textLength="30" x="547" y="886.5352">Color</text><line style="stroke:#A80036;stroke-width:1.5;" x1="519" x2="579" y1="898" y2="898"/><text fill="#000000" font-family="sans-serif" font-size="11" lengthAdjust="spacing" textLength="21" x="524" y="912.6348">RED</text><text fill="#000000" font-family="sans-serif" font-size="11" lengthAdjust="spacing" textLength="35" x="524" y="925.5898">BLACK</text><line style="stroke:#A80036;stroke-width:1.5;" x1="519" x2="579" y1="931.9102" y2="931.9102"/><!--MD5=[2bea451defd5fc6f19f55dc15999e7a1]
reverse link Klondike to Player--><path codeLine="59" d="M421.43,60.49 C378.1,83.96 317.93,116.57 280.78,136.7 " fill="none" id="Klondike-backto-Player" style="stroke:#A80036;stroke-width:1.0;"/><polygon fill="#A80036" points="432.89,54.27,425.7087,53.6152,422.3422,59.9922,429.5235,60.647,432.89,54.27" style="stroke:#A80036;stroke-width:1.0;"/><!--MD5=[f9ceef03e20e73b45950ff3824c47a81]
reverse link Klondike to Foundation--><path codeLine="60" d="M419.68,35.04 C297.78,43.34 13,71.67 13,155 C13,155 13,155 13,503 C13,554.6 12.23,570.69 35,617 C44.19,635.68 59.49,653.28 72.83,666.45 " fill="none" id="Klondike-backto-Foundation" style="stroke:#A80036;stroke-width:1.0;"/><polygon fill="#A80036" points="432.68,34.19,426.4293,30.5943,420.7061,34.9812,426.9568,38.5769,432.68,34.19" style="stroke:#A80036;stroke-width:1.0;"/><text fill="#000000" font-family="sans-serif" font-size="13" lengthAdjust="spacing" textLength="8" x="14" y="349.5684">4</text><!--MD5=[71e24f3ceac0bff83d88d05c1108e675]
reverse link Klondike to Waste--><path codeLine="61" d="M528.25,42.32 C585.33,56.7 667,88.83 667,155 C667,155 667,155 667,503 C667,561.8 663.98,630.97 662.23,666.25 " fill="none" id="Klondike-backto-Waste" style="stroke:#A80036;stroke-width:1.0;"/><polygon fill="#A80036" points="515.4,39.28,520.3157,44.5559,527.0765,42.0476,522.1608,36.7716,515.4,39.28" style="stroke:#A80036;stroke-width:1.0;"/><text fill="#000000" font-family="sans-serif" font-size="13" lengthAdjust="spacing" textLength="8" x="668" y="349.5684">1</text><!--MD5=[eadb8f18119342aa3fea54c289e0e073]
reverse link Klondike to Pile--><path codeLine="62" d="M488.37,67.59 C496.88,91.82 506,124.84 506,155 C506,155 506,155 506,427.5 C506,517.17 476.86,620.97 462.64,666.31 " fill="none" id="Klondike-backto-Pile" style="stroke:#A80036;stroke-width:1.0;"/><polygon fill="#A80036" points="483.77,55.11,482.0935,62.1235,487.9227,66.3685,489.5992,59.355,483.77,55.11" style="stroke:#A80036;stroke-width:1.0;"/><text fill="#000000" font-family="sans-serif" font-size="13" lengthAdjust="spacing" textLength="8" x="507" y="349.5684">7</text><!--MD5=[27cbbaa7ff32f4c95ac3b28df7385196]
reverse link Klondike to Stock--><path codeLine="63" d="M525.92,62.26 C555.61,83.82 587,115.87 587,155 C587,155 587,155 587,503 C587,562.52 571.92,631.39 563.14,666.43 " fill="none" id="Klondike-backto-Stock" style="stroke:#A80036;stroke-width:1.0;"/><polygon fill="#A80036" points="515.12,54.79,517.7796,61.4927,524.9896,61.6157,522.3301,54.913,515.12,54.79" style="stroke:#A80036;stroke-width:1.0;"/><text fill="#000000" font-family="sans-serif" font-size="13" lengthAdjust="spacing" textLength="8" x="588" y="349.5684">1</text><!--MD5=[927eaf80fdfca004cbe8ca12735b4fe6]
reverse link Klondike to Deck--><path codeLine="64" d="M465.6,68.29 C456.31,108.49 441.49,172.54 432.86,209.85 " fill="none" id="Klondike-backto-Deck" style="stroke:#A80036;stroke-width:1.0;"/><polygon fill="#A80036" points="468.59,55.4,463.3416,60.3452,465.8878,67.0918,471.1362,62.1466,468.59,55.4" style="stroke:#A80036;stroke-width:1.0;"/><text fill="#000000" font-family="sans-serif" font-size="13" lengthAdjust="spacing" textLength="8" x="461" y="98.5684">1</text><!--MD5=[5cf861f56d83ae4345dbc2180ae8b1d0]
reverse link Deck to Card--><path codeLine="66" d="M425.73,284.22 C424.21,343.06 417.23,451.69 388,539 C375.01,577.81 351.55,617.86 332.41,646.88 " fill="none" id="Deck-backto-Card" style="stroke:#A80036;stroke-width:1.0;"/><polygon fill="#FFFFFF" points="426,271.06,421.8755,276.9751,425.7492,283.0574,429.8737,277.1423,426,271.06" style="stroke:#A80036;stroke-width:1.0;"/><text fill="#000000" font-family="sans-serif" font-size="13" lengthAdjust="spacing" textLength="16" x="415" y="431.5684">52</text><!--MD5=[963841abb93a50b09e5102bc9a962674]
reverse link Stack to Foundation--><path codeLine="69" d="M248.37,552.95 C226.85,572.92 201.8,596.1 179,617 C160.9,633.59 140.37,652.19 124.65,666.39 " fill="none" id="Stack-backto-Foundation" style="stroke:#A80036;stroke-width:1.0;"/><polygon fill="none" points="243.91,547.54,263.32,539.05,253.44,557.79,243.91,547.54" style="stroke:#A80036;stroke-width:1.0;"/><!--MD5=[3b9a23cc0b008b9f83d6d00a937b5381]
reverse link Stack to Waste--><path codeLine="70" d="M388.8,537.02 C451.37,563.22 536.67,602.42 606,647 C615.13,652.87 624.64,659.87 633.14,666.47 " fill="none" id="Stack-backto-Waste" style="stroke:#A80036;stroke-width:1.0;"/><polygon fill="none" points="385.96,543.43,370.15,529.32,391.31,530.49,385.96,543.43" style="stroke:#A80036;stroke-width:1.0;"/><!--MD5=[0b636e65d460de4575ef8fdc52ca00cd]
reverse link Stack to Stock--><path codeLine="71" d="M375.13,550.32 C384.25,556.5 393.39,562.83 402,569 C447.29,601.48 497.95,641.62 528.65,666.39 " fill="none" id="Stack-backto-Stock" style="stroke:#A80036;stroke-width:1.0;"/><polygon fill="none" points="371.05,556.01,358.32,539.07,378.84,544.38,371.05,556.01" style="stroke:#A80036;stroke-width:1.0;"/><!--MD5=[2b4f69fd33faabc3bd87ea06d0b8f65e]
reverse link Stack to Pile--><path codeLine="72" d="M344.94,555.35 C374.92,591.88 413.46,638.86 436.07,666.43 " fill="none" id="Stack-backto-Pile" style="stroke:#A80036;stroke-width:1.0;"/><polygon fill="none" points="339.14,559.3,331.86,539.4,349.96,550.42,339.14,559.3" style="stroke:#A80036;stroke-width:1.0;"/><!--MD5=[f548c5c96242fe97c51f400c92c82124]
reverse link Stack to Card--><path codeLine="73" d="M302,552.74 C302,582.13 302,618.96 302,646.99 " fill="none" id="Stack-backto-Card" style="stroke:#A80036;stroke-width:1.0;"/><polygon fill="#FFFFFF" points="302,539.4,298,545.4,302,551.4,306,545.4,302,539.4" style="stroke:#A80036;stroke-width:1.0;"/><!--MD5=[f75b0448c8a92f04d08159ebf1fde086]
reverse link Move to Stack--><path codeLine="75" d="M266.6,400.91 C274.11,422.15 282.49,445.83 289.2,464.82 " fill="none" id="Move-backto-Stack" style="stroke:#A80036;stroke-width:1.0;"/><polygon fill="#FFFFFF" points="262.17,388.4,260.4035,395.3914,266.1776,399.711,267.9442,392.7196,262.17,388.4" style="stroke:#A80036;stroke-width:1.0;"/><!--MD5=[610353d3a72395b77e7f561f5987d448]
link Move to Card--><path codeLine="76" d="M230.42,388.29 C217.43,427.85 203.6,488.04 217,539 C226.81,576.33 248.22,614.14 267.1,642.52 " fill="none" id="Move-to-Card" style="stroke:#A80036;stroke-width:1.0;"/><polygon fill="#A80036" points="270.1,646.99,268.4128,637.2867,267.3166,642.8363,261.767,641.7401,270.1,646.99" style="stroke:#A80036;stroke-width:1.0;"/><!--MD5=[7e30d075c7e28ae86a5e6e748d3cd0b6]
link Player to Move--><path codeLine="78" d="M247,180.24 C247,208.91 247,258.37 247,295.36 " fill="none" id="Player-to-Move" style="stroke:#A80036;stroke-width:1.0;stroke-dasharray:7.0,7.0;"/><polygon fill="#A80036" points="247,300.72,251,291.72,247,295.72,243,291.72,247,300.72" style="stroke:#A80036;stroke-width:1.0;"/><text fill="#000000" font-family="sans-serif" font-size="13" lengthAdjust="spacing" textLength="22" x="248" y="245.5684">1..*</text><!--MD5=[1571e4e0b7cdbae74b04c97a95677c54]
link Player to Goal--><path codeLine="79" d="M230.92,180.24 C207.1,214.68 162.52,279.13 137.08,315.91 " fill="none" id="Player-to-Goal" style="stroke:#A80036;stroke-width:1.0;stroke-dasharray:7.0,7.0;"/><polygon fill="#A80036" points="134.08,320.26,142.487,315.1295,136.9223,316.1465,135.9054,310.5818,134.08,320.26" style="stroke:#A80036;stroke-width:1.0;"/><!--MD5=[ae3acdfb93a324d3cd7a34f252cdb980]
reverse link Goal to FilledFoundation--><path codeLine="81" d="M114.66,388.84 C110.62,441.24 103.97,527.5 100.8,568.69 " fill="none" id="Goal-backto-FilledFoundation" style="stroke:#A80036;stroke-width:1.0;"/><polygon fill="none" points="107.7,388.09,116.21,368.69,121.65,389.17,107.7,388.09" style="stroke:#A80036;stroke-width:1.0;"/><!--MD5=[f971fc69050d0cf16c59ccf679f62492]
link FilledFoundation to Foundation--><path codeLine="82" d="M99,617.12 C99,630.39 99,647.16 99,661.22 " fill="none" id="FilledFoundation-to-Foundation" style="stroke:#A80036;stroke-width:1.0;stroke-dasharray:7.0,7.0;"/><polygon fill="#A80036" points="99,666.26,103,657.26,99,661.26,95,657.26,99,666.26" style="stroke:#A80036;stroke-width:1.0;"/><text fill="#000000" font-family="sans-serif" font-size="13" lengthAdjust="spacing" textLength="8" x="89.975" y="655.7348">4</text><!--MD5=[ca692640f1ba3c6dc2ab36f59a92ed8f]
reverse link Card to Club--><path codeLine="85" d="M212.51,717.29 C168.87,733.65 118.31,758.7 83,795 C60.08,818.56 47.35,855.15 41.09,878.84 " fill="none" id="Card-backto-Club" style="stroke:#A80036;stroke-width:1.0;"/><polygon fill="none" points="210.16,710.7,231.35,710.6,214.85,723.89,210.16,710.7" style="stroke:#A80036;stroke-width:1.0;"/><!--MD5=[c818baa2cc2b1b1f4cdad2ed3f82840b]
reverse link Card to Diamond--><path codeLine="86" d="M241.8,748.58 C227.96,763.08 213.84,779.08 202,795 C181.91,822 163.77,856.43 152.82,878.83 " fill="none" id="Card-backto-Diamond" style="stroke:#A80036;stroke-width:1.0;"/><polygon fill="none" points="237.02,743.45,256.02,734.07,247.02,753.25,237.02,743.45" style="stroke:#A80036;stroke-width:1.0;"/><!--MD5=[c603a37839707c6efda071c07c3a75fb]
reverse link Card to Heart--><path codeLine="87" d="M286.92,753.74 C276.71,795.88 263.81,849.13 256.58,878.98 " fill="none" id="Card-backto-Heart" style="stroke:#A80036;stroke-width:1.0;"/><polygon fill="none" points="280.17,751.89,291.68,734.1,293.77,755.18,280.17,751.89" style="stroke:#A80036;stroke-width:1.0;"/><!--MD5=[365717fd5a1be815b82ea7b62be19593]
reverse link Card to Spade--><path codeLine="88" d="M316.78,753.74 C326.79,795.88 339.44,849.13 346.53,878.98 " fill="none" id="Card-backto-Spade" style="stroke:#A80036;stroke-width:1.0;"/><polygon fill="none" points="309.93,755.17,312.12,734.1,323.55,751.94,309.93,755.17" style="stroke:#A80036;stroke-width:1.0;"/><!--MD5=[61f0f9d0c9254ae0e03151bbc65e86aa]
reverse link Card to Rank--><path codeLine="89" d="M360.49,743.6 C375.88,759.15 391.62,776.89 404,795 C410.32,804.24 416.14,814.45 421.39,824.79 " fill="none" id="Card-backto-Rank" style="stroke:#A80036;stroke-width:1.0;"/><polygon fill="#A80036" points="350.99,734.23,352.4536,741.291,359.5344,742.6557,358.0708,735.5947,350.99,734.23" style="stroke:#A80036;stroke-width:1.0;"/><!--MD5=[1ce41b9c5b7599635db46c013c27916e]
reverse link Card to Color--><path codeLine="90" d="M384.43,727.98 C430.64,749.68 482.44,776.49 500,795 C518.85,814.86 531.39,843.24 539.06,865.79 " fill="none" id="Card-backto-Color" style="stroke:#A80036;stroke-width:1.0;"/><polygon fill="#A80036" points="372.52,722.44,376.2807,728.5928,383.4066,727.4879,379.6459,721.3351,372.52,722.44" style="stroke:#A80036;stroke-width:1.0;"/><!--MD5=[bca555ce4b90a7f7dbc1ba2ffb998977]
@startuml class diagram

'clases'
class Klondike
class Player
class Pile
class Foundation
class Waste
class Stock
class Move{
    - from: Stack
    - card: Card
    - to: Stack
}
class Goal
class Pile
class Deck{
    - cardList: List
}
class Club
class Diamond
class Heart
class Spade
class FilledFoundation

'absract clases'
abstract Stack{
    - cardList: List
    # validMove(): boolean
}
abstract Card{
    - color: Color
    - rank:Rank
    - upTurnCard: boolean
}

'enum clases'
enum Rank{
    A
    2
    3
    4
    5
    6
    7
    8
    9
    10
    J
    Q
    K
}
enum Color{
    RED
    BLACK
}

'relations'

Klondike *-down- Player
Klondike *-down- Foundation: 4
Klondike *-down- Waste: 1
Klondike *-down- Pile: 7
Klondike *-down- Stock: 1
Klondike *-down- Deck: 1

Deck o- - Card: 52


Stack <|-down- Foundation
Stack <|-down- Waste
Stack <|-down- Stock
Stack <|-down- Pile
Stack o-down- Card

Move o-down- Stack
Move -down-> Card

Player .down.> Move: 1..*
Player .down.> Goal

Goal <|-down- FilledFoundation
FilledFoundation .right.> "4" Foundation


Card <|-down- Club
Card <|-down- Diamond
Card <|-down- Heart
Card <|-down- Spade
Card *-down- Rank
Card *-down- Color


@enduml

@startuml class diagram

class Klondike
class Player
class Pile
class Foundation
class Waste
class Stock
class Move{
    - from: Stack
    - card: Card
    - to: Stack
}
class Goal
class Pile
class Deck{
    - cardList: List
}
class Club
class Diamond
class Heart
class Spade
class FilledFoundation

abstract Stack{
    - cardList: List
    # validMove(): boolean
}
abstract Card{
    - color: Color
    - rank:Rank
    - upTurnCard: boolean
}

enum Rank{
    A
    2
    3
    4
    5
    6
    7
    8
    9
    10
    J
    Q
    K
}
enum Color{
    RED
    BLACK
}


Klondike *-down- Player
Klondike *-down- Foundation: 4
Klondike *-down- Waste: 1
Klondike *-down- Pile: 7
Klondike *-down- Stock: 1
Klondike *-down- Deck: 1

Deck o- - Card: 52


Stack <|-down- Foundation
Stack <|-down- Waste
Stack <|-down- Stock
Stack <|-down- Pile
Stack o-down- Card

Move o-down- Stack
Move -down-> Card

Player .down.> Move: 1..*
Player .down.> Goal

Goal <|-down- FilledFoundation
FilledFoundation .right.> "4" Foundation


Card <|-down- Club
Card <|-down- Diamond
Card <|-down- Heart
Card <|-down- Spade
Card *-down- Rank
Card *-down- Color


@enduml

PlantUML version 1.2022.0(Tue Jan 11 11:16:42 ECT 2022)
(GPL source distribution)
Java Runtime: OpenJDK Runtime Environment
JVM: OpenJDK 64-Bit Server VM
Default Encoding: UTF-8
Language: en
Country: EC
--></g></svg>