<?xml version="1.0" encoding="UTF-8" standalone="no"?><svg xmlns="http://www.w3.org/2000/svg" xmlns:xlink="http://www.w3.org/1999/xlink" contentScriptType="application/ecmascript" contentStyleType="text/css" height="956px" preserveAspectRatio="none" style="width:589px;height:956px;background:#FFFFFF;" version="1.1" viewBox="0 0 589 956" width="589px" zoomAndPan="magnify"><defs><filter height="300%" id="fr1nrvn2m9owc" width="300%" x="-1" y="-1"><feGaussianBlur result="blurOut" stdDeviation="2.0"/><feColorMatrix in="blurOut" result="blurOut2" type="matrix" values="0 0 0 0 0 0 0 0 0 0 0 0 0 0 0 0 0 0 .4 0"/><feOffset dx="4.0" dy="4.0" in="blurOut2" result="blurOut3"/><feBlend in="SourceGraphic" in2="blurOut3" mode="normal"/></filter></defs><g><g id="inDeck"><rect fill="#FEFECE" filter="url(#fr1nrvn2m9owc)" height="50" rx="12.5" ry="12.5" style="stroke:#A80036;stroke-width:1.5;" width="66" x="218" y="103"/><line style="stroke:#A80036;stroke-width:1.5;" x1="218" x2="284" y1="129.4883" y2="129.4883"/><text fill="#000000" font-family="sans-serif" font-size="14" lengthAdjust="spacing" textLength="46" x="228" y="121.5352">inDeck</text></g><g id="inStock"><rect fill="#FEFECE" filter="url(#fr1nrvn2m9owc)" height="50" rx="12.5" ry="12.5" style="stroke:#A80036;stroke-width:1.5;" width="70" x="140" y="315"/><line style="stroke:#A80036;stroke-width:1.5;" x1="140" x2="210" y1="341.4883" y2="341.4883"/><text fill="#000000" font-family="sans-serif" font-size="14" lengthAdjust="spacing" textLength="50" x="150" y="333.5352">inStock</text></g><g id="inWaste"><rect fill="#FEFECE" filter="url(#fr1nrvn2m9owc)" height="50" rx="12.5" ry="12.5" style="stroke:#A80036;stroke-width:1.5;" width="73" x="161.5" y="442"/><line style="stroke:#A80036;stroke-width:1.5;" x1="161.5" x2="234.5" y1="468.4883" y2="468.4883"/><text fill="#000000" font-family="sans-serif" font-size="14" lengthAdjust="spacing" textLength="53" x="171.5" y="460.5352">inWaste</text></g><g id="inPile"><rect fill="#FEFECE" filter="url(#fr1nrvn2m9owc)" height="50" rx="12.5" ry="12.5" style="stroke:#A80036;stroke-width:1.5;" width="57" x="299.5" y="670"/><line style="stroke:#A80036;stroke-width:1.5;" x1="299.5" x2="356.5" y1="696.4883" y2="696.4883"/><text fill="#000000" font-family="sans-serif" font-size="14" lengthAdjust="spacing" textLength="37" x="309.5" y="688.5352">inPile</text></g><g id="inFoundation"><rect fill="#FEFECE" filter="url(#fr1nrvn2m9owc)" height="50" rx="12.5" ry="12.5" style="stroke:#A80036;stroke-width:1.5;" width="112" x="7" y="797"/><line style="stroke:#A80036;stroke-width:1.5;" x1="7" x2="119" y1="823.4883" y2="823.4883"/><text fill="#000000" font-family="sans-serif" font-size="14" lengthAdjust="spacing" textLength="92" x="17" y="815.5352">inFoundation</text></g><polygon fill="#FEFECE" filter="url(#fr1nrvn2m9owc)" points="251,230,263,242,251,254,239,242,251,230" style="stroke:#A80036;stroke-width:1.5;"/><polygon fill="#FEFECE" filter="url(#fr1nrvn2m9owc)" points="70,569,82,581,70,593,58,581,70,569" style="stroke:#A80036;stroke-width:1.5;"/><ellipse cx="251" cy="16" fill="#000000" filter="url(#fr1nrvn2m9owc)" rx="10" ry="10" style="stroke:none;stroke-width:1.0;"/><ellipse cx="63" cy="934" filter="url(#fr1nrvn2m9owc)" rx="10" ry="10" style="stroke:#000000;stroke-width:1.0;fill:none;"/><ellipse cx="63.5" cy="934.5" fill="#000000" rx="6" ry="6" style="stroke:none;stroke-width:1.0;"/><!--MD5=[eecdc8f027e2184ca802e0eb509013f8]
link *start to inDeck--><path d="M251,26 C251,41.46 251,73.68 251,97.6 " fill="none" id="*start-to-inDeck" style="stroke:#A80036;stroke-width:1.0;"/><polygon fill="#A80036" points="251,102.87,255,93.87,251,97.87,247,93.87,251,102.87" style="stroke:#A80036;stroke-width:1.0;"/><text fill="#000000" font-family="sans-serif" font-size="13" lengthAdjust="spacing" textLength="80" x="252" y="69.5684">Shuffle Deck</text><!--MD5=[3e07142d35e13052e46118831d18ffa4]
link inDeck to conditionalDeal--><path d="M251,153.03 C251,174.58 251,205.63 251,224.5 " fill="none" id="inDeck-to-conditionalDeal" style="stroke:#A80036;stroke-width:1.0;"/><polygon fill="#A80036" points="251,229.94,255,220.94,251,224.94,247,220.94,251,229.94" style="stroke:#A80036;stroke-width:1.0;"/><text fill="#000000" font-family="sans-serif" font-size="13" lengthAdjust="spacing" textLength="28" x="252" y="196.5684">Deal</text><!--MD5=[2e316543f32ff32fcfaf56c8bf065002]
link conditionalDeal to inPile--><path d="M258.11,247.17 C277.17,258.96 328,294.56 328,339 C328,339 328,339 328,582 C328,610.08 328,642.12 328,664.72 " fill="none" id="conditionalDeal-to-inPile" style="stroke:#A80036;stroke-width:1.0;"/><polygon fill="#A80036" points="328,669.97,332,660.97,328,664.97,324,660.97,328,669.97" style="stroke:#A80036;stroke-width:1.0;"/><text fill="#000000" font-family="sans-serif" font-size="13" lengthAdjust="spacing" textLength="124" x="329" y="472.0684">[Deal 28 first cards]</text><!--MD5=[ec42d6b8dc281a45955d3efd188a2fbd]
link inPile to inPile--><path d="M356.73,684.2 C374.55,681.59 391.5,685.19 391.5,695 C391.5,703.89 377.58,707.68 361.71,706.37 " fill="none" id="inPile-to-inPile" style="stroke:#A80036;stroke-width:1.0;"/><polygon fill="#A80036" points="356.73,705.8,365.2144,710.8016,361.6973,706.371,366.1279,702.8539,356.73,705.8" style="stroke:#A80036;stroke-width:1.0;"/><text fill="#000000" font-family="sans-serif" font-size="13" lengthAdjust="spacing" textLength="179" x="397.5" y="700.0684">[Move Card From Pile to Pile]</text><!--MD5=[db536215426e68a62ecbf506c993df2b]
link inPile to inFoundation--><path d="M299.39,709.5 C256.24,729.85 173.68,768.79 118.47,794.83 " fill="none" id="inPile-to-inFoundation" style="stroke:#A80036;stroke-width:1.0;"/><polygon fill="#A80036" points="113.88,797,123.7267,796.7916,118.4051,794.8731,120.3236,789.5515,113.88,797" style="stroke:#A80036;stroke-width:1.0;"/><text fill="#000000" font-family="sans-serif" font-size="13" lengthAdjust="spacing" textLength="215" x="213" y="763.5684">Move card from pile to foundation</text><!--MD5=[d4a330b75ca02ebcd2bec88a4b328824]
link conditionalDeal to inStock--><path d="M246.01,249.3 C236.35,261.5 214.55,289.04 197.64,310.4 " fill="none" id="conditionalDeal-to-inStock" style="stroke:#A80036;stroke-width:1.0;"/><polygon fill="#A80036" points="194.33,314.59,203.0534,310.018,197.4342,310.6704,196.7819,305.0512,194.33,314.59" style="stroke:#A80036;stroke-width:1.0;"/><!--MD5=[273686ff01568d7ec89d5d3df41040a5]
link inStock to inWaste--><path d="M170.83,365.28 C169.23,379.13 168.51,396.72 172,412 C173.94,420.48 177.38,429.19 181.15,437.06 " fill="none" id="inStock-to-inWaste" style="stroke:#A80036;stroke-width:1.0;"/><polygon fill="#A80036" points="183.52,441.85,183.0979,432.0102,181.2953,437.3722,175.9334,435.5696,183.52,441.85" style="stroke:#A80036;stroke-width:1.0;"/><text fill="#000000" font-family="sans-serif" font-size="13" lengthAdjust="spacing" textLength="128" x="173" y="408.5684">Move cards to waste</text><!--MD5=[550f1e1eb817c98d1b43f789c6e571c1]
link inWaste to conditionalWaste--><path d="M170.54,492.03 C142.13,516.89 99.27,554.39 80.01,571.24 " fill="none" id="inWaste-to-conditionalWaste" style="stroke:#A80036;stroke-width:1.0;"/><polygon fill="#A80036" points="76.06,574.7,85.4735,571.804,79.83,571.4156,80.2184,565.7721,76.06,574.7" style="stroke:#A80036;stroke-width:1.0;"/><text fill="#000000" font-family="sans-serif" font-size="13" lengthAdjust="spacing" textLength="103" x="135" y="535.5684">[Waste is Empty]</text><!--MD5=[8dc3841a7150d889a119daaee66470af]
link conditionalWaste to inStock--><path d="M66.9,572.07 C58.88,550.17 39.4,487.52 60,442 C75.45,407.88 108.75,380.71 135.56,363.18 " fill="none" id="conditionalWaste-to-inStock" style="stroke:#A80036;stroke-width:1.0;"/><polygon fill="#A80036" points="139.8,360.46,130.0664,361.9621,135.5941,363.1638,134.3924,368.6915,139.8,360.46" style="stroke:#A80036;stroke-width:1.0;"/><text fill="#000000" font-family="sans-serif" font-size="13" lengthAdjust="spacing" textLength="82" x="61" y="472.0684">Reload waste</text><!--MD5=[bdc0544616eed7842b2bf66d25d9695f]
link conditionalWaste to inPile--><path d="M73.89,589.45 C80.89,602.05 96.87,627.45 118,640 C177.95,675.61 205.36,649.48 272,670 C279.39,672.28 287.13,675.21 294.41,678.24 " fill="none" id="conditionalWaste-to-inPile" style="stroke:#A80036;stroke-width:1.0;"/><polygon fill="#A80036" points="299.37,680.35,292.6544,673.1458,294.7691,678.3925,289.5224,680.5072,299.37,680.35" style="stroke:#A80036;stroke-width:1.0;"/><text fill="#000000" font-family="sans-serif" font-size="13" lengthAdjust="spacing" textLength="182" x="119" y="636.5684">Move card from waste to pile</text><!--MD5=[0fe2ea9923320fb26c85eb6e580797ed]
link conditionalWaste to inFoundation--><path d="M67.62,590.65 C63.45,606.33 54.98,640.52 52,670 C47.72,712.27 53.23,761.37 57.88,791.81 " fill="none" id="conditionalWaste-to-inFoundation" style="stroke:#A80036;stroke-width:1.0;"/><polygon fill="#A80036" points="58.67,796.9,61.2343,787.3908,57.899,791.9598,53.33,788.6245,58.67,796.9" style="stroke:#A80036;stroke-width:1.0;"/><text fill="#000000" font-family="sans-serif" font-size="13" lengthAdjust="spacing" textLength="228" x="53" y="700.0684">Move card from waste to foundation</text><!--MD5=[f5e7df94e00c8012128da00a392ae6f2]
link inFoundation to *end--><path d="M63,847.14 C63,869.03 63,900.57 63,918.71 " fill="none" id="inFoundation-to-*end" style="stroke:#A80036;stroke-width:1.0;"/><polygon fill="#A80036" points="63,923.88,67,914.88,63,918.88,59,914.88,63,923.88" style="stroke:#A80036;stroke-width:1.0;"/><text fill="#000000" font-family="sans-serif" font-size="13" lengthAdjust="spacing" textLength="230" x="64" y="890.5684">[Fill Foundation or abandoned game]</text><!--MD5=[9bba2906e2a878eecf198adb0dfa5357]
@startuml instructions diagram

'STATES'

state inDeck
state inStock
state inWaste
state inPile
state inFoundation

'CONDITIONALS'

state conditionalDeal <<choice>>
state conditionalWaste <<choice>>


'DECK'

[*] - -> inDeck: Shuffle Deck
inDeck - -> conditionalDeal: Deal

'PILE'

conditionalDeal - -> inPile: [Deal 28 first cards]
inPile - -> inPile : [Move Card From Pile to Pile]
inPile - -> inFoundation: Move card from pile to foundation

'STOCK'

conditionalDeal - -> inStock
inStock - -> inWaste: Move cards to waste

'WASTE'

inWaste - -> conditionalWaste: [Waste is Empty]
conditionalWaste - -> inStock: Reload waste
conditionalWaste - -> inPile: Move card from waste to pile
conditionalWaste - -> inFoundation: Move card from waste to foundation

'FOUNDATION'

inFoundation - -> [*]: [Fill Foundation or abandoned game]

@enduml

@startuml instructions diagram


state inDeck
state inStock
state inWaste
state inPile
state inFoundation


state conditionalDeal <<choice>>
state conditionalWaste <<choice>>



[*] - -> inDeck: Shuffle Deck
inDeck - -> conditionalDeal: Deal


conditionalDeal - -> inPile: [Deal 28 first cards]
inPile - -> inPile : [Move Card From Pile to Pile]
inPile - -> inFoundation: Move card from pile to foundation


conditionalDeal - -> inStock
inStock - -> inWaste: Move cards to waste


inWaste - -> conditionalWaste: [Waste is Empty]
conditionalWaste - -> inStock: Reload waste
conditionalWaste - -> inPile: Move card from waste to pile
conditionalWaste - -> inFoundation: Move card from waste to foundation


inFoundation - -> [*]: [Fill Foundation or abandoned game]

@enduml

PlantUML version 1.2022.0(Tue Jan 11 11:16:42 ECT 2022)
(GPL source distribution)
Java Runtime: OpenJDK Runtime Environment
JVM: OpenJDK 64-Bit Server VM
Default Encoding: UTF-8
Language: en
Country: EC
--></g></svg>